<?xml version="1.0" encoding="UTF-8"?>
<svg width="266pt" height="141pt" version="1.1" viewBox="0 0 266 141" xmlns="http://www.w3.org/2000/svg" xmlns:xlink="http://www.w3.org/1999/xlink">
<defs>
<symbol id="w" overflow="visible">
<path d="m6.3906-5.7656c0.29688 0 0.40625 0 0.40625-0.26562 0-0.15625-0.10938-0.15625-0.375-0.15625h-1.1562c0.26562-1.4688 0.46875-2.4844 0.59375-2.9531 0.078125-0.34375 0.375-0.67188 0.75-0.67188 0.29688 0 0.60938 0.125 0.75 0.26562-0.5625 0.046875-0.73438 0.46875-0.73438 0.71875 0 0.28125 0.21875 0.45312 0.48438 0.45312 0.29688 0 0.71875-0.25 0.71875-0.79688 0-0.59375-0.59375-0.92188-1.2344-0.92188-0.60938 0-1.2188 0.45312-1.5 1.0156-0.26562 0.5-0.40625 1.0156-0.73438 2.8906h-0.95312c-0.28125 0-0.42188 0-0.42188 0.26562 0 0.15625 0.078125 0.15625 0.375 0.15625h0.92188c-0.26562 1.3281-0.85938 4.5781-1.1875 6.1094-0.23438 1.25-0.45312 2.2969-1.1719 2.2969-0.046875 0-0.45312 0-0.71875-0.28125 0.73438-0.046875 0.73438-0.6875 0.73438-0.70312 0-0.28125-0.21875-0.45312-0.48438-0.45312-0.29688 0-0.71875 0.25-0.71875 0.79688 0 0.60938 0.625 0.92188 1.1875 0.92188 1.4688 0 2.0625-2.625 2.2188-3.3438 0.26562-1.0938 0.96875-4.9062 1.0312-5.3438z"/>
</symbol>
<symbol id="v" overflow="visible">
<path d="m3.7656 1.6094c-0.375 0.54688-0.9375 1.0312-1.6406 1.0312-0.17188 0-0.85938-0.03125-1.0781-0.6875 0.046875 0.015625 0.10938 0.015625 0.14062 0.015625 0.4375 0 0.71875-0.375 0.71875-0.70312s-0.26562-0.45312-0.48438-0.45312c-0.23438 0-0.73438 0.17188-0.73438 0.875 0 0.73438 0.625 1.2344 1.4375 1.2344 1.4375 0 2.875-1.3125 3.2812-2.9062l1.4062-5.5938c0.015625-0.078125 0.046875-0.15625 0.046875-0.25 0-0.20312-0.17188-0.35938-0.39062-0.35938-0.125 0-0.4375 0.0625-0.54688 0.5l-1.0625 4.2031c-0.0625 0.26562-0.0625 0.29688-0.1875 0.45312-0.28125 0.40625-0.75 0.89062-1.4375 0.89062-0.8125 0-0.875-0.79688-0.875-1.1719 0-0.82812 0.375-1.9219 0.76562-2.9688 0.15625-0.40625 0.25-0.60938 0.25-0.89062 0-0.60938-0.4375-1.1562-1.1406-1.1562-1.3125 0-1.8438 2.0781-1.8438 2.2031 0 0.046875 0.046875 0.125 0.15625 0.125 0.125 0 0.14062-0.0625 0.20312-0.26562 0.34375-1.2031 0.89062-1.7656 1.4375-1.7656 0.14062 0 0.375 0 0.375 0.46875 0 0.375-0.15625 0.78125-0.375 1.3281-0.70312 1.875-0.70312 2.3594-0.70312 2.7031 0 1.3594 0.98438 1.6719 1.7031 1.6719 0.40625 0 0.92188-0.125 1.4375-0.65625l0.015625 0.015625c-0.21875 0.84375-0.35938 1.4062-0.875 2.1094z"/>
</symbol>
<symbol id="k" overflow="visible">
<path d="m9.6875-4.6406c0.20312 0 0.45312 0 0.45312-0.26562s-0.25-0.26562-0.45312-0.26562h-8.4531c-0.20312 0-0.45312 0-0.45312 0.25 0 0.28125 0.23438 0.28125 0.45312 0.28125zm0 2.6562c0.20312 0 0.45312 0 0.45312-0.25 0-0.28125-0.25-0.28125-0.45312-0.28125h-8.4531c-0.20312 0-0.45312 0-0.45312 0.26562s0.23438 0.26562 0.45312 0.26562z"/>
</symbol>
<symbol id="j" overflow="visible">
<path d="m6.3906-5.7656c0.29688 0 0.40625 0 0.40625-0.26562 0-0.15625-0.10938-0.15625-0.375-0.15625h-1.1562c0.26562-1.4688 0.46875-2.4844 0.59375-2.9531 0.078125-0.34375 0.375-0.67188 0.75-0.67188 0.29688 0 0.60938 0.125 0.75 0.26562-0.5625 0.046875-0.73438 0.46875-0.73438 0.71875 0 0.28125 0.21875 0.45312 0.48438 0.45312 0.29688 0 0.71875-0.25 0.71875-0.79688 0-0.59375-0.59375-0.92188-1.2344-0.92188-0.60938 0-1.2188 0.45312-1.5 1.0156-0.26562 0.5-0.40625 1.0156-0.73438 2.8906h-0.95312c-0.28125 0-0.42188 0-0.42188 0.26562 0 0.15625 0.078125 0.15625 0.375 0.15625h0.92188c-0.26562 1.3281-0.85938 4.5781-1.1875 6.1094-0.23438 1.25-0.45312 2.2969-1.1719 2.2969-0.046875 0-0.45312 0-0.71875-0.28125 0.73438-0.046875 0.73438-0.6875 0.73438-0.70312 0-0.28125-0.21875-0.45312-0.48438-0.45312-0.29688 0-0.71875 0.25-0.71875 0.79688 0 0.60938 0.625 0.92188 1.1875 0.92188 1.4688 0 2.0625-2.625 2.2188-3.3438 0.26562-1.0938 0.96875-4.9062 1.0312-5.3438z"/>
</symbol>
<symbol id="i" overflow="visible">
<path d="m4.6562 3.4844c0-0.046875 0-0.078125-0.23438-0.3125-1.4375-1.4531-2.2344-3.8125-2.2344-6.75 0-2.7812 0.67188-5.1719 2.3281-6.8594 0.14062-0.14062 0.14062-0.15625 0.14062-0.20312 0-0.09375-0.0625-0.10938-0.125-0.10938-0.1875 0-1.3594 1.0312-2.0625 2.4375-0.73438 1.4375-1.0625 2.9844-1.0625 4.7344 0 1.2812 0.20312 2.9844 0.95312 4.5312 0.84375 1.7188 2.0156 2.6406 2.1719 2.6406 0.0625 0 0.125-0.015625 0.125-0.10938z"/>
</symbol>
<symbol id="h" overflow="visible">
<path d="m6.7969-5.8594c-0.45312 0.09375-0.625 0.4375-0.625 0.70312 0 0.34375 0.26562 0.46875 0.46875 0.46875 0.4375 0 0.73438-0.375 0.73438-0.76562 0-0.59375-0.6875-0.875-1.2969-0.875-0.875 0-1.3594 0.85938-1.4844 1.1406-0.32812-1.0781-1.2188-1.1406-1.4844-1.1406-1.4531 0-2.2344 1.875-2.2344 2.2031 0 0.046875 0.0625 0.125 0.15625 0.125 0.10938 0 0.14062-0.09375 0.17188-0.14062 0.48438-1.5938 1.4531-1.8906 1.8594-1.8906 0.65625 0 0.78125 0.59375 0.78125 0.9375 0 0.3125-0.078125 0.64062-0.26562 1.3281l-0.48438 1.9688c-0.20312 0.85938-0.625 1.6562-1.3906 1.6562-0.0625 0-0.42188 0-0.73438-0.1875 0.51562-0.10938 0.64062-0.53125 0.64062-0.70312 0-0.28125-0.21875-0.45312-0.48438-0.45312-0.34375 0-0.71875 0.29688-0.71875 0.75 0 0.60938 0.67188 0.875 1.2812 0.875 0.6875 0 1.1875-0.54688 1.4844-1.125 0.23438 0.84375 0.9375 1.125 1.4688 1.125 1.4688 0 2.25-1.875 2.25-2.1875 0-0.078125-0.0625-0.14062-0.15625-0.14062-0.125 0-0.14062 0.078125-0.17188 0.1875-0.39062 1.2656-1.2344 1.8594-1.875 1.8594-0.5 0-0.76562-0.375-0.76562-0.96875 0-0.3125 0.046875-0.54688 0.28125-1.4844l0.5-1.9531c0.21875-0.85938 0.70312-1.4844 1.3594-1.4844 0.03125 0 0.4375 0 0.73438 0.17188z"/>
</symbol>
<symbol id="g" overflow="visible">
<path d="m2.9375-6.375c0-0.25 0-0.26562-0.23438-0.26562-0.625 0.64062-1.5 0.64062-1.8125 0.64062v0.3125c0.20312 0 0.78125 0 1.2969-0.26562v5.1719c0 0.35938-0.03125 0.46875-0.92188 0.46875h-0.3125v0.3125c0.34375-0.03125 1.2031-0.03125 1.6094-0.03125 0.39062 0 1.2656 0 1.6094 0.03125v-0.3125h-0.3125c-0.90625 0-0.92188-0.10938-0.92188-0.46875z"/>
</symbol>
<symbol id="f" overflow="visible">
<path d="m2.7969 0.0625c0-0.84375-0.26562-1.4531-0.85938-1.4531-0.45312 0-0.6875 0.375-0.6875 0.6875s0.21875 0.70312 0.70312 0.70312c0.1875 0 0.34375-0.0625 0.46875-0.1875 0.03125-0.03125 0.046875-0.03125 0.0625-0.03125 0.03125 0 0.03125 0.20312 0.03125 0.28125 0 0.46875-0.09375 1.4062-0.92188 2.3281-0.15625 0.17188-0.15625 0.20312-0.15625 0.23438 0 0.078125 0.0625 0.14062 0.14062 0.14062 0.10938 0 1.2188-1.0625 1.2188-2.7031z"/>
</symbol>
<symbol id="e" overflow="visible">
<path d="m6.7969-5.8594c-0.45312 0.09375-0.625 0.4375-0.625 0.70312 0 0.34375 0.26562 0.46875 0.46875 0.46875 0.4375 0 0.73438-0.375 0.73438-0.76562 0-0.59375-0.6875-0.875-1.2969-0.875-0.875 0-1.3594 0.85938-1.4844 1.1406-0.32812-1.0781-1.2188-1.1406-1.4844-1.1406-1.4531 0-2.2344 1.875-2.2344 2.2031 0 0.046875 0.0625 0.125 0.15625 0.125 0.10938 0 0.14062-0.09375 0.17188-0.14062 0.48438-1.5938 1.4531-1.8906 1.8594-1.8906 0.65625 0 0.78125 0.59375 0.78125 0.9375 0 0.3125-0.078125 0.64062-0.26562 1.3281l-0.48438 1.9688c-0.20312 0.85938-0.625 1.6562-1.3906 1.6562-0.0625 0-0.42188 0-0.73438-0.1875 0.51562-0.10938 0.64062-0.53125 0.64062-0.70312 0-0.28125-0.21875-0.45312-0.48438-0.45312-0.34375 0-0.71875 0.29688-0.71875 0.75 0 0.60938 0.67188 0.875 1.2812 0.875 0.6875 0 1.1875-0.54688 1.4844-1.125 0.23438 0.84375 0.9375 1.125 1.4688 1.125 1.4688 0 2.25-1.875 2.25-2.1875 0-0.078125-0.0625-0.14062-0.15625-0.14062-0.125 0-0.14062 0.078125-0.17188 0.1875-0.39062 1.2656-1.2344 1.8594-1.875 1.8594-0.5 0-0.76562-0.375-0.76562-0.96875 0-0.3125 0.046875-0.54688 0.28125-1.4844l0.5-1.9531c0.21875-0.85938 0.70312-1.4844 1.3594-1.4844 0.03125 0 0.4375 0 0.73438 0.17188z"/>
</symbol>
<symbol id="d" overflow="visible">
<path d="m1.2656-0.76562 1.0625-1.0312c1.5469-1.375 2.1406-1.9062 2.1406-2.9062 0-1.1406-0.89062-1.9375-2.1094-1.9375-1.125 0-1.8594 0.92188-1.8594 1.8125 0 0.54688 0.5 0.54688 0.53125 0.54688 0.17188 0 0.51562-0.10938 0.51562-0.53125 0-0.25-0.1875-0.51562-0.53125-0.51562-0.078125 0-0.09375 0-0.125 0.015625 0.21875-0.65625 0.76562-1.0156 1.3438-1.0156 0.90625 0 1.3281 0.8125 1.3281 1.625 0 0.79688-0.48438 1.5781-1.0469 2.2031l-1.9062 2.125c-0.10938 0.10938-0.10938 0.14062-0.10938 0.375h3.7031l0.26562-1.7344h-0.23438c-0.0625 0.29688-0.125 0.73438-0.23438 0.89062-0.0625 0.078125-0.71875 0.078125-0.9375 0.078125z"/>
</symbol>
<symbol id="c" overflow="visible">
<path d="m2.7969 0.0625c0-0.84375-0.26562-1.4531-0.85938-1.4531-0.45312 0-0.6875 0.375-0.6875 0.6875s0.21875 0.70312 0.70312 0.70312c0.1875 0 0.34375-0.0625 0.46875-0.1875 0.03125-0.03125 0.046875-0.03125 0.0625-0.03125 0.03125 0 0.03125 0.20312 0.03125 0.28125 0 0.46875-0.09375 1.4062-0.92188 2.3281-0.15625 0.17188-0.15625 0.20312-0.15625 0.23438 0 0.078125 0.0625 0.14062 0.14062 0.14062 0.10938 0 1.2188-1.0625 1.2188-2.7031z"/>
</symbol>
<symbol id="b" overflow="visible">
<path d="m6.7969-5.8594c-0.45312 0.09375-0.625 0.4375-0.625 0.70312 0 0.34375 0.26562 0.46875 0.46875 0.46875 0.4375 0 0.73438-0.375 0.73438-0.76562 0-0.59375-0.6875-0.875-1.2969-0.875-0.875 0-1.3594 0.85938-1.4844 1.1406-0.32812-1.0781-1.2188-1.1406-1.4844-1.1406-1.4531 0-2.2344 1.875-2.2344 2.2031 0 0.046875 0.0625 0.125 0.15625 0.125 0.10938 0 0.14062-0.09375 0.17188-0.14062 0.48438-1.5938 1.4531-1.8906 1.8594-1.8906 0.65625 0 0.78125 0.59375 0.78125 0.9375 0 0.3125-0.078125 0.64062-0.26562 1.3281l-0.48438 1.9688c-0.20312 0.85938-0.625 1.6562-1.3906 1.6562-0.0625 0-0.42188 0-0.73438-0.1875 0.51562-0.10938 0.64062-0.53125 0.64062-0.70312 0-0.28125-0.21875-0.45312-0.48438-0.45312-0.34375 0-0.71875 0.29688-0.71875 0.75 0 0.60938 0.67188 0.875 1.2812 0.875 0.6875 0 1.1875-0.54688 1.4844-1.125 0.23438 0.84375 0.9375 1.125 1.4688 1.125 1.4688 0 2.25-1.875 2.25-2.1875 0-0.078125-0.0625-0.14062-0.15625-0.14062-0.125 0-0.14062 0.078125-0.17188 0.1875-0.39062 1.2656-1.2344 1.8594-1.875 1.8594-0.5 0-0.76562-0.375-0.76562-0.96875 0-0.3125 0.046875-0.54688 0.28125-1.4844l0.5-1.9531c0.21875-0.85938 0.70312-1.4844 1.3594-1.4844 0.03125 0 0.4375 0 0.73438 0.17188z"/>
</symbol>
<symbol id="u" overflow="visible">
<path d="m2.8906-3.5156c0.8125-0.26562 1.3906-0.95312 1.3906-1.75 0-0.8125-0.875-1.375-1.8281-1.375-1 0-1.7656 0.59375-1.7656 1.3594 0 0.32812 0.21875 0.51562 0.51562 0.51562s0.5-0.21875 0.5-0.51562c0-0.48438-0.46875-0.48438-0.60938-0.48438 0.29688-0.5 0.95312-0.625 1.3125-0.625 0.42188 0 0.96875 0.21875 0.96875 1.1094 0 0.125-0.03125 0.70312-0.28125 1.1406-0.29688 0.48438-0.64062 0.51562-0.89062 0.51562-0.078125 0.015625-0.3125 0.03125-0.39062 0.03125-0.078125 0.015625-0.14062 0.03125-0.14062 0.125 0 0.10938 0.0625 0.10938 0.23438 0.10938h0.4375c0.8125 0 1.1875 0.67188 1.1875 1.6562 0 1.3594-0.6875 1.6406-1.125 1.6406s-1.1875-0.17188-1.5312-0.75c0.34375 0.046875 0.65625-0.17188 0.65625-0.54688 0-0.35938-0.26562-0.5625-0.54688-0.5625-0.25 0-0.5625 0.14062-0.5625 0.57812 0 0.90625 0.92188 1.5625 2.0156 1.5625 1.2188 0 2.125-0.90625 2.125-1.9219 0-0.8125-0.64062-1.5938-1.6719-1.8125z"/>
</symbol>
<symbol id="t" overflow="visible">
<path d="m2.7969 0.0625c0-0.84375-0.26562-1.4531-0.85938-1.4531-0.45312 0-0.6875 0.375-0.6875 0.6875s0.21875 0.70312 0.70312 0.70312c0.1875 0 0.34375-0.0625 0.46875-0.1875 0.03125-0.03125 0.046875-0.03125 0.0625-0.03125 0.03125 0 0.03125 0.20312 0.03125 0.28125 0 0.46875-0.09375 1.4062-0.92188 2.3281-0.15625 0.17188-0.15625 0.20312-0.15625 0.23438 0 0.078125 0.0625 0.14062 0.14062 0.14062 0.10938 0 1.2188-1.0625 1.2188-2.7031z"/>
</symbol>
<symbol id="s" overflow="visible">
<path d="m6.7969-5.8594c-0.45312 0.09375-0.625 0.4375-0.625 0.70312 0 0.34375 0.26562 0.46875 0.46875 0.46875 0.4375 0 0.73438-0.375 0.73438-0.76562 0-0.59375-0.6875-0.875-1.2969-0.875-0.875 0-1.3594 0.85938-1.4844 1.1406-0.32812-1.0781-1.2188-1.1406-1.4844-1.1406-1.4531 0-2.2344 1.875-2.2344 2.2031 0 0.046875 0.0625 0.125 0.15625 0.125 0.10938 0 0.14062-0.09375 0.17188-0.14062 0.48438-1.5938 1.4531-1.8906 1.8594-1.8906 0.65625 0 0.78125 0.59375 0.78125 0.9375 0 0.3125-0.078125 0.64062-0.26562 1.3281l-0.48438 1.9688c-0.20312 0.85938-0.625 1.6562-1.3906 1.6562-0.0625 0-0.42188 0-0.73438-0.1875 0.51562-0.10938 0.64062-0.53125 0.64062-0.70312 0-0.28125-0.21875-0.45312-0.48438-0.45312-0.34375 0-0.71875 0.29688-0.71875 0.75 0 0.60938 0.67188 0.875 1.2812 0.875 0.6875 0 1.1875-0.54688 1.4844-1.125 0.23438 0.84375 0.9375 1.125 1.4688 1.125 1.4688 0 2.25-1.875 2.25-2.1875 0-0.078125-0.0625-0.14062-0.15625-0.14062-0.125 0-0.14062 0.078125-0.17188 0.1875-0.39062 1.2656-1.2344 1.8594-1.875 1.8594-0.5 0-0.76562-0.375-0.76562-0.96875 0-0.3125 0.046875-0.54688 0.28125-1.4844l0.5-1.9531c0.21875-0.85938 0.70312-1.4844 1.3594-1.4844 0.03125 0 0.4375 0 0.73438 0.17188z"/>
</symbol>
<symbol id="r" overflow="visible">
<path d="m2.9375-1.6406v0.85938c0 0.35938-0.03125 0.46875-0.76562 0.46875h-0.20312v0.3125c0.40625-0.03125 0.92188-0.03125 1.3438-0.03125s0.9375 0 1.3594 0.03125v-0.3125h-0.21875c-0.73438 0-0.75-0.10938-0.75-0.46875v-0.85938h0.98438v-0.3125h-0.98438v-4.5312c0-0.20312 0-0.26562-0.17188-0.26562-0.078125 0-0.10938 0-0.1875 0.125l-3.0625 4.6719v0.3125zm0.046875-0.3125h-2.4219l2.4219-3.7188z"/>
</symbol>
<symbol id="q" overflow="visible">
<path d="m4.0469-3.5781c0-1.0781-0.14062-2.8594-0.95312-4.5312-0.84375-1.7188-2.0156-2.6406-2.1719-2.6406-0.0625 0-0.14062 0.015625-0.14062 0.10938 0 0.046875 0 0.0625 0.25 0.3125 1.4375 1.4531 2.2344 3.8125 2.2344 6.75 0 2.7812-0.67188 5.1719-2.3281 6.8594-0.15625 0.125-0.15625 0.15625-0.15625 0.20312 0 0.09375 0.078125 0.10938 0.14062 0.10938 0.1875 0 1.3594-1.0312 2.0625-2.4375 0.73438-1.4531 1.0625-3 1.0625-4.7344z"/>
</symbol>
<symbol id="p" overflow="visible">
<path d="m6.7969-5.8594c-0.45312 0.09375-0.625 0.4375-0.625 0.70312 0 0.34375 0.26562 0.46875 0.46875 0.46875 0.4375 0 0.73438-0.375 0.73438-0.76562 0-0.59375-0.6875-0.875-1.2969-0.875-0.875 0-1.3594 0.85938-1.4844 1.1406-0.32812-1.0781-1.2188-1.1406-1.4844-1.1406-1.4531 0-2.2344 1.875-2.2344 2.2031 0 0.046875 0.0625 0.125 0.15625 0.125 0.10938 0 0.14062-0.09375 0.17188-0.14062 0.48438-1.5938 1.4531-1.8906 1.8594-1.8906 0.65625 0 0.78125 0.59375 0.78125 0.9375 0 0.3125-0.078125 0.64062-0.26562 1.3281l-0.48438 1.9688c-0.20312 0.85938-0.625 1.6562-1.3906 1.6562-0.0625 0-0.42188 0-0.73438-0.1875 0.51562-0.10938 0.64062-0.53125 0.64062-0.70312 0-0.28125-0.21875-0.45312-0.48438-0.45312-0.34375 0-0.71875 0.29688-0.71875 0.75 0 0.60938 0.67188 0.875 1.2812 0.875 0.6875 0 1.1875-0.54688 1.4844-1.125 0.23438 0.84375 0.9375 1.125 1.4688 1.125 1.4688 0 2.25-1.875 2.25-2.1875 0-0.078125-0.0625-0.14062-0.15625-0.14062-0.125 0-0.14062 0.078125-0.17188 0.1875-0.39062 1.2656-1.2344 1.8594-1.875 1.8594-0.5 0-0.76562-0.375-0.76562-0.96875 0-0.3125 0.046875-0.54688 0.28125-1.4844l0.5-1.9531c0.21875-0.85938 0.70312-1.4844 1.3594-1.4844 0.03125 0 0.4375 0 0.73438 0.17188z"/>
</symbol>
<symbol id="o" overflow="visible">
<path d="m2.9375-6.375c0-0.25 0-0.26562-0.23438-0.26562-0.625 0.64062-1.5 0.64062-1.8125 0.64062v0.3125c0.20312 0 0.78125 0 1.2969-0.26562v5.1719c0 0.35938-0.03125 0.46875-0.92188 0.46875h-0.3125v0.3125c0.34375-0.03125 1.2031-0.03125 1.6094-0.03125 0.39062 0 1.2656 0 1.6094 0.03125v-0.3125h-0.3125c-0.90625 0-0.92188-0.10938-0.92188-0.46875z"/>
</symbol>
<symbol id="a" overflow="visible">
<path d="m6.7969-5.8594c-0.45312 0.09375-0.625 0.4375-0.625 0.70312 0 0.34375 0.26562 0.46875 0.46875 0.46875 0.4375 0 0.73438-0.375 0.73438-0.76562 0-0.59375-0.6875-0.875-1.2969-0.875-0.875 0-1.3594 0.85938-1.4844 1.1406-0.32812-1.0781-1.2188-1.1406-1.4844-1.1406-1.4531 0-2.2344 1.875-2.2344 2.2031 0 0.046875 0.0625 0.125 0.15625 0.125 0.10938 0 0.14062-0.09375 0.17188-0.14062 0.48438-1.5938 1.4531-1.8906 1.8594-1.8906 0.65625 0 0.78125 0.59375 0.78125 0.9375 0 0.3125-0.078125 0.64062-0.26562 1.3281l-0.48438 1.9688c-0.20312 0.85938-0.625 1.6562-1.3906 1.6562-0.0625 0-0.42188 0-0.73438-0.1875 0.51562-0.10938 0.64062-0.53125 0.64062-0.70312 0-0.28125-0.21875-0.45312-0.48438-0.45312-0.34375 0-0.71875 0.29688-0.71875 0.75 0 0.60938 0.67188 0.875 1.2812 0.875 0.6875 0 1.1875-0.54688 1.4844-1.125 0.23438 0.84375 0.9375 1.125 1.4688 1.125 1.4688 0 2.25-1.875 2.25-2.1875 0-0.078125-0.0625-0.14062-0.15625-0.14062-0.125 0-0.14062 0.078125-0.17188 0.1875-0.39062 1.2656-1.2344 1.8594-1.875 1.8594-0.5 0-0.76562-0.375-0.76562-0.96875 0-0.3125 0.046875-0.54688 0.28125-1.4844l0.5-1.9531c0.21875-0.85938 0.70312-1.4844 1.3594-1.4844 0.03125 0 0.4375 0 0.73438 0.17188z"/>
</symbol>
<symbol id="n" overflow="visible">
<path d="m1.2656-0.76562 1.0625-1.0312c1.5469-1.375 2.1406-1.9062 2.1406-2.9062 0-1.1406-0.89062-1.9375-2.1094-1.9375-1.125 0-1.8594 0.92188-1.8594 1.8125 0 0.54688 0.5 0.54688 0.53125 0.54688 0.17188 0 0.51562-0.10938 0.51562-0.53125 0-0.25-0.1875-0.51562-0.53125-0.51562-0.078125 0-0.09375 0-0.125 0.015625 0.21875-0.65625 0.76562-1.0156 1.3438-1.0156 0.90625 0 1.3281 0.8125 1.3281 1.625 0 0.79688-0.48438 1.5781-1.0469 2.2031l-1.9062 2.125c-0.10938 0.10938-0.10938 0.14062-0.10938 0.375h3.7031l0.26562-1.7344h-0.23438c-0.0625 0.29688-0.125 0.73438-0.23438 0.89062-0.0625 0.078125-0.71875 0.078125-0.9375 0.078125z"/>
</symbol>
<symbol id="m" overflow="visible">
<path d="m2.8906-3.5156c0.8125-0.26562 1.3906-0.95312 1.3906-1.75 0-0.8125-0.875-1.375-1.8281-1.375-1 0-1.7656 0.59375-1.7656 1.3594 0 0.32812 0.21875 0.51562 0.51562 0.51562s0.5-0.21875 0.5-0.51562c0-0.48438-0.46875-0.48438-0.60938-0.48438 0.29688-0.5 0.95312-0.625 1.3125-0.625 0.42188 0 0.96875 0.21875 0.96875 1.1094 0 0.125-0.03125 0.70312-0.28125 1.1406-0.29688 0.48438-0.64062 0.51562-0.89062 0.51562-0.078125 0.015625-0.3125 0.03125-0.39062 0.03125-0.078125 0.015625-0.14062 0.03125-0.14062 0.125 0 0.10938 0.0625 0.10938 0.23438 0.10938h0.4375c0.8125 0 1.1875 0.67188 1.1875 1.6562 0 1.3594-0.6875 1.6406-1.125 1.6406s-1.1875-0.17188-1.5312-0.75c0.34375 0.046875 0.65625-0.17188 0.65625-0.54688 0-0.35938-0.26562-0.5625-0.54688-0.5625-0.25 0-0.5625 0.14062-0.5625 0.57812 0 0.90625 0.92188 1.5625 2.0156 1.5625 1.2188 0 2.125-0.90625 2.125-1.9219 0-0.8125-0.64062-1.5938-1.6719-1.8125z"/>
</symbol>
<symbol id="l" overflow="visible">
<path d="m2.9375-1.6406v0.85938c0 0.35938-0.03125 0.46875-0.76562 0.46875h-0.20312v0.3125c0.40625-0.03125 0.92188-0.03125 1.3438-0.03125s0.9375 0 1.3594 0.03125v-0.3125h-0.21875c-0.73438 0-0.75-0.10938-0.75-0.46875v-0.85938h0.98438v-0.3125h-0.98438v-4.5312c0-0.20312 0-0.26562-0.17188-0.26562-0.078125 0-0.10938 0-0.1875 0.125l-3.0625 4.6719v0.3125zm0.046875-0.3125h-2.4219l2.4219-3.7188z"/>
</symbol>
</defs>
<g>
<use x="125.419192" y="82.854024" xlink:href="#w"/>
</g>
<path transform="matrix(1,0,0,-1,-127,712)" d="m272 632c0 8.8359-7.1641 16-16 16s-16-7.1641-16-16 7.1641-16 16-16 16 7.1641 16 16z" fill="none" stroke="#000" stroke-linejoin="round" stroke-miterlimit="10" stroke-width=".8"/>
<path transform="matrix(1,0,0,-1,-127,712)" d="m272 632h120" fill="none" stroke="#000" stroke-linejoin="round" stroke-miterlimit="10" stroke-width=".8"/>
<path transform="matrix(1,0,0,-1,-127,712)" d="m392 632-7 2.332v-4.6641z" fill-rule="evenodd" stroke="#000" stroke-linejoin="round" stroke-miterlimit="10" stroke-width=".8"/>
<g>
<use x="147.143192" y="71.276024" xlink:href="#v"/>
<use x="158.492192" y="71.276024" xlink:href="#k"/>
<use x="173.403192" y="71.276024" xlink:href="#j"/>
<use x="181.858192" y="71.276024" xlink:href="#i"/>
<use x="187.321192" y="71.276024" xlink:href="#h"/>
<use x="195.304192" y="73.428024" xlink:href="#g"/>
<use x="200.783192" y="71.276024" xlink:href="#f"/>
<use x="207.081174" y="71.276024" xlink:href="#e"/>
<use x="215.058192" y="73.428024" xlink:href="#d"/>
<use x="220.538192" y="71.276024" xlink:href="#c"/>
<use x="226.836174" y="71.276024" xlink:href="#b"/>
<use x="234.813192" y="73.428024" xlink:href="#u"/>
<use x="240.293192" y="71.276024" xlink:href="#t"/>
<use x="246.591174" y="71.276024" xlink:href="#s"/>
<use x="254.568192" y="73.428024" xlink:href="#r"/>
<use x="260.048192" y="71.276024" xlink:href="#q"/>
</g>
<path transform="matrix(1,0,0,-1,-127,712)" d="m128 692h80l32-60" fill="none" stroke="#000" stroke-linejoin="round" stroke-miterlimit="10" stroke-width=".8"/>
<path transform="matrix(1,0,0,-1,-127,712)" d="m240 632-1.2383 7.2734-4.1133-2.1953z" fill-rule="evenodd" stroke="#000" stroke-linejoin="round" stroke-miterlimit="10" stroke-width=".8"/>
<g>
<use x="35.138192" y="15.271024" xlink:href="#p"/>
<use x="43.120192" y="17.423024" xlink:href="#o"/>
</g>
<path transform="matrix(1,0,0,-1,-127,712)" d="m128 652h80l32-20" fill="none" stroke="#000" stroke-linejoin="round" stroke-miterlimit="10" stroke-width=".8"/>
<path transform="matrix(1,0,0,-1,-127,712)" d="m240 632-4.6992 5.6875-2.4727-3.9531z" fill-rule="evenodd" stroke="#000" stroke-linejoin="round" stroke-miterlimit="10" stroke-width=".8"/>
<g>
<use x="35.138192" y="55.271024" xlink:href="#a"/>
<use x="43.120192" y="57.423024" xlink:href="#n"/>
</g>
<path transform="matrix(1,0,0,-1,-127,712)" d="m128 612h80l32 20" fill="none" stroke="#000" stroke-linejoin="round" stroke-miterlimit="10" stroke-width=".8"/>
<path transform="matrix(1,0,0,-1,-127,712)" d="m240 632-7.1719-1.7344 2.4727-3.9531z" fill-rule="evenodd" stroke="#000" stroke-linejoin="round" stroke-miterlimit="10" stroke-width=".8"/>
<g>
<use x="35.138192" y="95.271024" xlink:href="#a"/>
<use x="43.120192" y="97.423024" xlink:href="#m"/>
</g>
<path transform="matrix(1,0,0,-1,-127,712)" d="m128 572h80l32 60" fill="none" stroke="#000" stroke-linejoin="round" stroke-miterlimit="10" stroke-width=".8"/>
<path transform="matrix(1,0,0,-1,-127,712)" d="m240 632-5.3516-5.0781 4.1133-2.1953z" fill-rule="evenodd" stroke="#000" stroke-linejoin="round" stroke-miterlimit="10" stroke-width=".8"/>
<g>
<use x="35.138192" y="135.271024" xlink:href="#a"/>
<use x="43.120192" y="137.423024" xlink:href="#l"/>
</g>
</svg>
