<?xml version="1.0" encoding="UTF-8"?>
<svg width="273pt" height="147pt" version="1.1" viewBox="0 0 273 147" xmlns="http://www.w3.org/2000/svg" xmlns:xlink="http://www.w3.org/1999/xlink">
<defs>
<symbol id="as" overflow="visible">
<path d="m6.3906-5.7656c0.29688 0 0.40625 0 0.40625-0.26562 0-0.15625-0.10938-0.15625-0.375-0.15625h-1.1562c0.26562-1.4688 0.46875-2.4844 0.59375-2.9531 0.078125-0.34375 0.375-0.67188 0.75-0.67188 0.29688 0 0.60938 0.125 0.75 0.26562-0.5625 0.046875-0.73438 0.46875-0.73438 0.71875 0 0.28125 0.21875 0.45312 0.48438 0.45312 0.29688 0 0.71875-0.25 0.71875-0.79688 0-0.59375-0.59375-0.92188-1.2344-0.92188-0.60938 0-1.2188 0.45312-1.5 1.0156-0.26562 0.5-0.40625 1.0156-0.73438 2.8906h-0.95312c-0.28125 0-0.42188 0-0.42188 0.26562 0 0.15625 0.078125 0.15625 0.375 0.15625h0.92188c-0.26562 1.3281-0.85938 4.5781-1.1875 6.1094-0.23438 1.25-0.45312 2.2969-1.1719 2.2969-0.046875 0-0.45312 0-0.71875-0.28125 0.73438-0.046875 0.73438-0.6875 0.73438-0.70312 0-0.28125-0.21875-0.45312-0.48438-0.45312-0.29688 0-0.71875 0.25-0.71875 0.79688 0 0.60938 0.625 0.92188 1.1875 0.92188 1.4688 0 2.0625-2.625 2.2188-3.3438 0.26562-1.0938 0.96875-4.9062 1.0312-5.3438z"/>
</symbol>
<symbol id="ar" overflow="visible">
<path d="m4.8438-1.8281c-0.046875 0.23438-0.078125 0.29688-0.26562 0.51562-0.59375 0.75-1.1875 1.0312-1.6406 1.0312-0.46875 0-0.92188-0.375-0.92188-1.375 0-0.75 0.4375-2.3594 0.75-3 0.42188-0.8125 1.0625-1.375 1.6719-1.375 0.9375 0 1.125 1.1719 1.125 1.25l-0.046875 0.20312zm0.89062-3.5469c-0.1875-0.42188-0.57812-0.95312-1.2969-0.95312-1.5625 0-3.3438 1.9688-3.3438 4.1094 0 1.4844 0.90625 2.2188 1.8125 2.2188 0.76562 0 1.4375-0.60938 1.7031-0.89062l-0.32812 1.2969c-0.1875 0.78125-0.28125 1.1406-0.79688 1.6406-0.59375 0.59375-1.125 0.59375-1.4531 0.59375-0.42188 0-0.78125-0.03125-1.1406-0.14062 0.45312-0.14062 0.57812-0.53125 0.57812-0.6875 0-0.23438-0.17188-0.46875-0.5-0.46875-0.34375 0-0.70312 0.29688-0.70312 0.76562 0 0.59375 0.57812 0.8125 1.7969 0.8125 1.8594 0 2.8125-1.1875 3-1.9531l1.5938-6.4375c0.046875-0.17188 0.046875-0.20312 0.046875-0.21875 0-0.20312-0.15625-0.35938-0.375-0.35938-0.34375 0-0.54688 0.28125-0.59375 0.67188z"/>
</symbol>
<symbol id="am" overflow="visible">
<path d="m9.6875-4.6406c0.20312 0 0.45312 0 0.45312-0.26562s-0.25-0.26562-0.45312-0.26562h-8.4531c-0.20312 0-0.45312 0-0.45312 0.25 0 0.28125 0.23438 0.28125 0.45312 0.28125zm0 2.6562c0.20312 0 0.45312 0 0.45312-0.25 0-0.28125-0.25-0.28125-0.45312-0.28125h-8.4531c-0.20312 0-0.45312 0-0.45312 0.26562s0.23438 0.26562 0.45312 0.26562z"/>
</symbol>
<symbol id="ac" overflow="visible">
<path d="m4.6094-3.375c-0.09375-0.625-0.5-1.1875-1.2812-1.1875-0.60938 0-1.25 0.17188-2.0312 0.9375-0.82812 0.82812-0.89062 1.7656-0.89062 2.0625 0 0.625 0.4375 1.7812 1.8281 1.7812 2.375 0 3.4062-3.3438 3.4062-4.7812 0-1.5781-0.92188-2.5781-2.1562-2.5781-1.4375 0-1.9062 1.2969-1.9062 1.5781 0 0.14062 0.09375 0.34375 0.39062 0.34375 0.32812 0 0.53125-0.29688 0.53125-0.51562 0-0.35938-0.3125-0.35938-0.46875-0.35938 0.4375-0.73438 1.1562-0.79688 1.4375-0.79688 0.73438 0 1.4219 0.51562 1.4219 1.8125 0 0.39062-0.0625 0.89062-0.26562 1.7031zm-2.3438 3.3125c-1.0938 0-1.0938-1.0312-1.0938-1.125 0-0.26562 0.25-1.6562 0.65625-2.2656 0.39062-0.5625 0.89062-0.89062 1.5-0.89062 1.0938 0 1.1094 1.125 1.1094 1.3281 0 0.71875-0.64062 2.9531-2.1719 2.9531z"/>
</symbol>
<symbol id="ab" overflow="visible">
<path d="m3.7344-6.0312c0.078125-0.35938 0.10938-0.46875 1.0469-0.46875 0.29688 0 0.375 0 0.375-0.1875 0-0.125-0.10938-0.125-0.15625-0.125-0.32812 0-1.1406 0.03125-1.4688 0.03125-0.29688 0-1.0312-0.03125-1.3281-0.03125-0.0625 0-0.1875 0-0.1875 0.20312 0 0.10938 0.09375 0.10938 0.28125 0.10938 0.015625 0 0.20312 0 0.375 0.015625 0.17188 0.03125 0.26562 0.03125 0.26562 0.17188 0 0.03125 0 0.0625-0.03125 0.1875l-1.3438 5.3438c-0.09375 0.39062-0.10938 0.46875-0.90625 0.46875-0.17188 0-0.26562 0-0.26562 0.20312 0 0.10938 0.09375 0.10938 0.26562 0.10938h4.625c0.23438 0 0.23438 0 0.29688-0.17188l0.79688-2.1562c0.03125-0.10938 0.03125-0.125 0.03125-0.14062 0-0.03125-0.03125-0.10938-0.10938-0.10938-0.09375 0-0.10938 0.0625-0.17188 0.21875-0.34375 0.90625-0.78125 2.0469-2.5 2.0469h-0.9375-0.21875c-0.10938-0.015625-0.14062-0.03125-0.14062-0.10938 0-0.03125 0-0.046875 0.046875-0.21875z"/>
</symbol>
<symbol id="t" overflow="visible">
<path d="m4.6094-3.375c-0.09375-0.625-0.5-1.1875-1.2812-1.1875-0.60938 0-1.25 0.17188-2.0312 0.9375-0.82812 0.82812-0.89062 1.7656-0.89062 2.0625 0 0.625 0.4375 1.7812 1.8281 1.7812 2.375 0 3.4062-3.3438 3.4062-4.7812 0-1.5781-0.92188-2.5781-2.1562-2.5781-1.4375 0-1.9062 1.2969-1.9062 1.5781 0 0.14062 0.09375 0.34375 0.39062 0.34375 0.32812 0 0.53125-0.29688 0.53125-0.51562 0-0.35938-0.3125-0.35938-0.46875-0.35938 0.4375-0.73438 1.1562-0.79688 1.4375-0.79688 0.73438 0 1.4219 0.51562 1.4219 1.8125 0 0.39062-0.0625 0.89062-0.26562 1.7031zm-2.3438 3.3125c-1.0938 0-1.0938-1.0312-1.0938-1.125 0-0.26562 0.25-1.6562 0.65625-2.2656 0.39062-0.5625 0.89062-0.89062 1.5-0.89062 1.0938 0 1.1094 1.125 1.1094 1.3281 0 0.71875-0.64062 2.9531-2.1719 2.9531z"/>
</symbol>
<symbol id="s" overflow="visible">
<path d="m4.8438-3.7969c0.046875-0.14062 0.046875-0.15625 0.046875-0.23438 0-0.17188-0.14062-0.26562-0.29688-0.26562-0.09375 0-0.25 0.0625-0.34375 0.20312-0.015625 0.0625-0.10938 0.35938-0.14062 0.54688-0.078125 0.25-0.14062 0.53125-0.20312 0.79688l-0.45312 1.7969c-0.03125 0.14062-0.46875 0.84375-1.125 0.84375-0.5 0-0.60938-0.4375-0.60938-0.8125 0-0.45312 0.17188-1.0781 0.5-1.9531 0.15625-0.40625 0.20312-0.51562 0.20312-0.71875 0-0.4375-0.3125-0.8125-0.8125-0.8125-0.95312 0-1.3125 1.4531-1.3125 1.5312 0 0.10938 0.09375 0.10938 0.10938 0.10938 0.10938 0 0.10938-0.03125 0.15625-0.1875 0.28125-0.9375 0.67188-1.2344 1.0156-1.2344 0.078125 0 0.25 0 0.25 0.3125 0 0.25-0.10938 0.51562-0.17188 0.70312-0.40625 1.0625-0.57812 1.625-0.57812 2.0938 0 0.89062 0.625 1.1875 1.2188 1.1875 0.39062 0 0.71875-0.17188 1-0.45312-0.125 0.51562-0.25 1.0156-0.64062 1.5469-0.26562 0.32812-0.64062 0.625-1.0938 0.625-0.14062 0-0.59375-0.03125-0.76562-0.42188 0.15625 0 0.29688 0 0.42188-0.125 0.10938-0.078125 0.20312-0.21875 0.20312-0.40625 0-0.3125-0.26562-0.34375-0.35938-0.34375-0.23438 0-0.5625 0.15625-0.5625 0.64062 0 0.5 0.4375 0.875 1.0625 0.875 1.0156 0 2.0469-0.90625 2.3281-2.0312z"/>
</symbol>
<symbol id="e" overflow="visible">
<path d="m4.6094-3.375c-0.09375-0.625-0.5-1.1875-1.2812-1.1875-0.60938 0-1.25 0.17188-2.0312 0.9375-0.82812 0.82812-0.89062 1.7656-0.89062 2.0625 0 0.625 0.4375 1.7812 1.8281 1.7812 2.375 0 3.4062-3.3438 3.4062-4.7812 0-1.5781-0.92188-2.5781-2.1562-2.5781-1.4375 0-1.9062 1.2969-1.9062 1.5781 0 0.14062 0.09375 0.34375 0.39062 0.34375 0.32812 0 0.53125-0.29688 0.53125-0.51562 0-0.35938-0.3125-0.35938-0.46875-0.35938 0.4375-0.73438 1.1562-0.79688 1.4375-0.79688 0.73438 0 1.4219 0.51562 1.4219 1.8125 0 0.39062-0.0625 0.89062-0.26562 1.7031zm-2.3438 3.3125c-1.0938 0-1.0938-1.0312-1.0938-1.125 0-0.26562 0.25-1.6562 0.65625-2.2656 0.39062-0.5625 0.89062-0.89062 1.5-0.89062 1.0938 0 1.1094 1.125 1.1094 1.3281 0 0.71875-0.64062 2.9531-2.1719 2.9531z"/>
</symbol>
<symbol id="d" overflow="visible">
<path d="m3.6562-3.9844h0.85938c0.20312 0 0.29688 0 0.29688-0.20312 0-0.10938-0.09375-0.10938-0.26562-0.10938h-0.82812l0.20312-1.1406c0.046875-0.20312 0.1875-0.90625 0.25-1.0312 0.078125-0.1875 0.25-0.34375 0.46875-0.34375 0.03125 0 0.29688 0 0.48438 0.1875-0.4375 0.03125-0.54688 0.39062-0.54688 0.53125 0 0.23438 0.1875 0.35938 0.375 0.35938 0.26562 0 0.54688-0.23438 0.54688-0.60938 0-0.45312-0.45312-0.6875-0.85938-0.6875-0.34375 0-0.96875 0.1875-1.2656 1.1719-0.0625 0.20312-0.09375 0.3125-0.32812 1.5625h-0.6875c-0.20312 0-0.3125 0-0.3125 0.1875 0 0.125 0.09375 0.125 0.28125 0.125h0.65625l-0.73438 3.9375c-0.1875 0.96875-0.35938 1.875-0.875 1.875-0.046875 0-0.28125 0-0.48438-0.1875 0.46875-0.03125 0.5625-0.39062 0.5625-0.53125 0-0.23438-0.1875-0.35938-0.375-0.35938-0.26562 0-0.54688 0.23438-0.54688 0.60938 0 0.4375 0.4375 0.6875 0.84375 0.6875 0.54688 0 0.95312-0.59375 1.125-0.96875 0.32812-0.625 0.54688-1.8281 0.5625-1.9062z"/>
</symbol>
<symbol id="c" overflow="visible">
<path d="m3.2969 2.3906c0-0.03125 0-0.046875-0.17188-0.21875-1.2344-1.25-1.5625-3.1406-1.5625-4.6719 0-1.7344 0.375-3.4688 1.6094-4.7031 0.125-0.125 0.125-0.14062 0.125-0.17188 0-0.078125-0.03125-0.10938-0.09375-0.10938-0.10938 0-1 0.6875-1.5938 1.9531-0.5 1.0938-0.625 2.2031-0.625 3.0312 0 0.78125 0.10938 1.9844 0.65625 3.125 0.60938 1.2188 1.4531 1.875 1.5625 1.875 0.0625 0 0.09375-0.03125 0.09375-0.10938z"/>
</symbol>
<symbol id="b" overflow="visible">
<path d="m3.3281-3.0156c0.0625-0.25 0.29688-1.1719 0.98438-1.1719 0.046875 0 0.29688 0 0.5 0.125-0.28125 0.0625-0.46875 0.29688-0.46875 0.54688 0 0.15625 0.10938 0.34375 0.375 0.34375 0.21875 0 0.53125-0.17188 0.53125-0.57812 0-0.51562-0.57812-0.65625-0.92188-0.65625-0.57812 0-0.92188 0.53125-1.0469 0.75-0.25-0.65625-0.78125-0.75-1.0781-0.75-1.0312 0-1.6094 1.2812-1.6094 1.5312 0 0.10938 0.10938 0.10938 0.125 0.10938 0.078125 0 0.10938-0.03125 0.125-0.10938 0.34375-1.0625 1-1.3125 1.3438-1.3125 0.1875 0 0.53125 0.09375 0.53125 0.67188 0 0.3125-0.17188 0.96875-0.53125 2.375-0.15625 0.60938-0.51562 1.0312-0.95312 1.0312-0.0625 0-0.28125 0-0.5-0.125 0.25-0.0625 0.46875-0.26562 0.46875-0.54688 0-0.26562-0.21875-0.34375-0.35938-0.34375-0.3125 0-0.54688 0.25-0.54688 0.57812 0 0.45312 0.48438 0.65625 0.92188 0.65625 0.67188 0 1.0312-0.70312 1.0469-0.75 0.125 0.35938 0.48438 0.75 1.0781 0.75 1.0312 0 1.5938-1.2812 1.5938-1.5312 0-0.10938-0.078125-0.10938-0.10938-0.10938-0.09375 0-0.10938 0.046875-0.14062 0.10938-0.32812 1.0781-1 1.3125-1.3125 1.3125-0.39062 0-0.54688-0.3125-0.54688-0.65625 0-0.21875 0.046875-0.4375 0.15625-0.875z"/>
</symbol>
<symbol id="a" overflow="visible">
<path d="m2.3281-4.4375c0-0.1875 0-0.1875-0.20312-0.1875-0.45312 0.4375-1.0781 0.4375-1.3594 0.4375v0.25c0.15625 0 0.625 0 1-0.1875v3.5469c0 0.23438 0 0.32812-0.6875 0.32812h-0.26562v0.25c0.125 0 0.98438-0.03125 1.2344-0.03125 0.21875 0 1.0938 0.03125 1.25 0.03125v-0.25h-0.26562c-0.70312 0-0.70312-0.09375-0.70312-0.32812z"/>
</symbol>
<symbol id="r" overflow="visible">
<path d="m2.0312-0.015625c0-0.65625-0.25-1.0469-0.64062-1.0469-0.32812 0-0.53125 0.25-0.53125 0.53125 0 0.26562 0.20312 0.53125 0.53125 0.53125 0.10938 0 0.25-0.046875 0.34375-0.125 0.03125-0.03125 0.046875-0.03125 0.046875-0.03125 0.015625 0 0.015625 0 0.015625 0.14062 0 0.75-0.34375 1.3438-0.67188 1.6719-0.10938 0.10938-0.10938 0.125-0.10938 0.15625 0 0.078125 0.046875 0.10938 0.09375 0.10938 0.10938 0 0.92188-0.76562 0.92188-1.9375z"/>
</symbol>
<symbol id="q" overflow="visible">
<path d="m3.3281-3.0156c0.0625-0.25 0.29688-1.1719 0.98438-1.1719 0.046875 0 0.29688 0 0.5 0.125-0.28125 0.0625-0.46875 0.29688-0.46875 0.54688 0 0.15625 0.10938 0.34375 0.375 0.34375 0.21875 0 0.53125-0.17188 0.53125-0.57812 0-0.51562-0.57812-0.65625-0.92188-0.65625-0.57812 0-0.92188 0.53125-1.0469 0.75-0.25-0.65625-0.78125-0.75-1.0781-0.75-1.0312 0-1.6094 1.2812-1.6094 1.5312 0 0.10938 0.10938 0.10938 0.125 0.10938 0.078125 0 0.10938-0.03125 0.125-0.10938 0.34375-1.0625 1-1.3125 1.3438-1.3125 0.1875 0 0.53125 0.09375 0.53125 0.67188 0 0.3125-0.17188 0.96875-0.53125 2.375-0.15625 0.60938-0.51562 1.0312-0.95312 1.0312-0.0625 0-0.28125 0-0.5-0.125 0.25-0.0625 0.46875-0.26562 0.46875-0.54688 0-0.26562-0.21875-0.34375-0.35938-0.34375-0.3125 0-0.54688 0.25-0.54688 0.57812 0 0.45312 0.48438 0.65625 0.92188 0.65625 0.67188 0 1.0312-0.70312 1.0469-0.75 0.125 0.35938 0.48438 0.75 1.0781 0.75 1.0312 0 1.5938-1.2812 1.5938-1.5312 0-0.10938-0.078125-0.10938-0.10938-0.10938-0.09375 0-0.10938 0.046875-0.14062 0.10938-0.32812 1.0781-1 1.3125-1.3125 1.3125-0.39062 0-0.54688-0.3125-0.54688-0.65625 0-0.21875 0.046875-0.4375 0.15625-0.875z"/>
</symbol>
<symbol id="p" overflow="visible">
<path d="m3.5156-1.2656h-0.23438c-0.015625 0.15625-0.09375 0.5625-0.1875 0.625-0.046875 0.046875-0.57812 0.046875-0.6875 0.046875h-1.2812c0.73438-0.64062 0.98438-0.84375 1.3906-1.1719 0.51562-0.40625 1-0.84375 1-1.5 0-0.84375-0.73438-1.3594-1.625-1.3594-0.85938 0-1.4531 0.60938-1.4531 1.25 0 0.34375 0.29688 0.39062 0.375 0.39062 0.15625 0 0.35938-0.125 0.35938-0.375 0-0.125-0.046875-0.375-0.40625-0.375 0.21875-0.48438 0.6875-0.64062 1.0156-0.64062 0.70312 0 1.0625 0.54688 1.0625 1.1094 0 0.60938-0.4375 1.0781-0.65625 1.3281l-1.6719 1.6719c-0.078125 0.0625-0.078125 0.078125-0.078125 0.26562h2.875z"/>
</symbol>
<symbol id="o" overflow="visible">
<path d="m2.0312-0.015625c0-0.65625-0.25-1.0469-0.64062-1.0469-0.32812 0-0.53125 0.25-0.53125 0.53125 0 0.26562 0.20312 0.53125 0.53125 0.53125 0.10938 0 0.25-0.046875 0.34375-0.125 0.03125-0.03125 0.046875-0.03125 0.046875-0.03125 0.015625 0 0.015625 0 0.015625 0.14062 0 0.75-0.34375 1.3438-0.67188 1.6719-0.10938 0.10938-0.10938 0.125-0.10938 0.15625 0 0.078125 0.046875 0.10938 0.09375 0.10938 0.10938 0 0.92188-0.76562 0.92188-1.9375z"/>
</symbol>
<symbol id="n" overflow="visible">
<path d="m3.3281-3.0156c0.0625-0.25 0.29688-1.1719 0.98438-1.1719 0.046875 0 0.29688 0 0.5 0.125-0.28125 0.0625-0.46875 0.29688-0.46875 0.54688 0 0.15625 0.10938 0.34375 0.375 0.34375 0.21875 0 0.53125-0.17188 0.53125-0.57812 0-0.51562-0.57812-0.65625-0.92188-0.65625-0.57812 0-0.92188 0.53125-1.0469 0.75-0.25-0.65625-0.78125-0.75-1.0781-0.75-1.0312 0-1.6094 1.2812-1.6094 1.5312 0 0.10938 0.10938 0.10938 0.125 0.10938 0.078125 0 0.10938-0.03125 0.125-0.10938 0.34375-1.0625 1-1.3125 1.3438-1.3125 0.1875 0 0.53125 0.09375 0.53125 0.67188 0 0.3125-0.17188 0.96875-0.53125 2.375-0.15625 0.60938-0.51562 1.0312-0.95312 1.0312-0.0625 0-0.28125 0-0.5-0.125 0.25-0.0625 0.46875-0.26562 0.46875-0.54688 0-0.26562-0.21875-0.34375-0.35938-0.34375-0.3125 0-0.54688 0.25-0.54688 0.57812 0 0.45312 0.48438 0.65625 0.92188 0.65625 0.67188 0 1.0312-0.70312 1.0469-0.75 0.125 0.35938 0.48438 0.75 1.0781 0.75 1.0312 0 1.5938-1.2812 1.5938-1.5312 0-0.10938-0.078125-0.10938-0.10938-0.10938-0.09375 0-0.10938 0.046875-0.14062 0.10938-0.32812 1.0781-1 1.3125-1.3125 1.3125-0.39062 0-0.54688-0.3125-0.54688-0.65625 0-0.21875 0.046875-0.4375 0.15625-0.875z"/>
</symbol>
<symbol id="m" overflow="visible">
<path d="m1.9062-2.3281c0.54688 0 0.9375 0.375 0.9375 1.125 0 0.85938-0.51562 1.125-0.90625 1.125-0.28125 0-0.90625-0.078125-1.1875-0.5 0.32812 0 0.40625-0.23438 0.40625-0.39062 0-0.21875-0.17188-0.375-0.39062-0.375-0.1875 0-0.39062 0.125-0.39062 0.40625 0 0.65625 0.71875 1.0781 1.5625 1.0781 0.96875 0 1.6406-0.65625 1.6406-1.3438 0-0.54688-0.4375-1.0938-1.2031-1.25 0.71875-0.26562 0.98438-0.78125 0.98438-1.2188 0-0.54688-0.625-0.95312-1.4062-0.95312-0.76562 0-1.3594 0.375-1.3594 0.9375 0 0.23438 0.15625 0.35938 0.35938 0.35938 0.21875 0 0.35938-0.15625 0.35938-0.34375 0-0.20312-0.14062-0.35938-0.35938-0.375 0.25-0.29688 0.71875-0.375 0.98438-0.375 0.3125 0 0.75 0.15625 0.75 0.75 0 0.29688-0.09375 0.625-0.28125 0.82812-0.21875 0.26562-0.42188 0.28125-0.76562 0.3125-0.17188 0.015625-0.1875 0.015625-0.21875 0.015625-0.015625 0-0.078125 0.015625-0.078125 0.09375 0 0.09375 0.0625 0.09375 0.1875 0.09375z"/>
</symbol>
<symbol id="l" overflow="visible">
<path d="m2.0312-0.015625c0-0.65625-0.25-1.0469-0.64062-1.0469-0.32812 0-0.53125 0.25-0.53125 0.53125 0 0.26562 0.20312 0.53125 0.53125 0.53125 0.10938 0 0.25-0.046875 0.34375-0.125 0.03125-0.03125 0.046875-0.03125 0.046875-0.03125 0.015625 0 0.015625 0 0.015625 0.14062 0 0.75-0.34375 1.3438-0.67188 1.6719-0.10938 0.10938-0.10938 0.125-0.10938 0.15625 0 0.078125 0.046875 0.10938 0.09375 0.10938 0.10938 0 0.92188-0.76562 0.92188-1.9375z"/>
</symbol>
<symbol id="k" overflow="visible">
<path d="m3.3281-3.0156c0.0625-0.25 0.29688-1.1719 0.98438-1.1719 0.046875 0 0.29688 0 0.5 0.125-0.28125 0.0625-0.46875 0.29688-0.46875 0.54688 0 0.15625 0.10938 0.34375 0.375 0.34375 0.21875 0 0.53125-0.17188 0.53125-0.57812 0-0.51562-0.57812-0.65625-0.92188-0.65625-0.57812 0-0.92188 0.53125-1.0469 0.75-0.25-0.65625-0.78125-0.75-1.0781-0.75-1.0312 0-1.6094 1.2812-1.6094 1.5312 0 0.10938 0.10938 0.10938 0.125 0.10938 0.078125 0 0.10938-0.03125 0.125-0.10938 0.34375-1.0625 1-1.3125 1.3438-1.3125 0.1875 0 0.53125 0.09375 0.53125 0.67188 0 0.3125-0.17188 0.96875-0.53125 2.375-0.15625 0.60938-0.51562 1.0312-0.95312 1.0312-0.0625 0-0.28125 0-0.5-0.125 0.25-0.0625 0.46875-0.26562 0.46875-0.54688 0-0.26562-0.21875-0.34375-0.35938-0.34375-0.3125 0-0.54688 0.25-0.54688 0.57812 0 0.45312 0.48438 0.65625 0.92188 0.65625 0.67188 0 1.0312-0.70312 1.0469-0.75 0.125 0.35938 0.48438 0.75 1.0781 0.75 1.0312 0 1.5938-1.2812 1.5938-1.5312 0-0.10938-0.078125-0.10938-0.10938-0.10938-0.09375 0-0.10938 0.046875-0.14062 0.10938-0.32812 1.0781-1 1.3125-1.3125 1.3125-0.39062 0-0.54688-0.3125-0.54688-0.65625 0-0.21875 0.046875-0.4375 0.15625-0.875z"/>
</symbol>
<symbol id="j" overflow="visible">
<path d="m3.6875-1.1406v-0.25h-0.78125v-3.1094c0-0.14062 0-0.20312-0.14062-0.20312-0.09375 0-0.125 0-0.1875 0.10938l-2.3125 3.2031v0.25h2.0625v0.5625c0 0.25 0 0.32812-0.57812 0.32812h-0.1875v0.25c0.35938-0.015625 0.79688-0.03125 1.0469-0.03125 0.26562 0 0.70312 0.015625 1.0625 0.03125v-0.25h-0.1875c-0.57812 0-0.57812-0.078125-0.57812-0.32812v-0.5625zm-1.3125-2.7969v2.5469h-1.8438z"/>
</symbol>
<symbol id="i" overflow="visible">
<path d="m2.875-2.5c0-0.76562-0.10938-1.9688-0.65625-3.1094-0.59375-1.2188-1.4531-1.875-1.5469-1.875-0.0625 0-0.10938 0.046875-0.10938 0.10938 0 0.03125 0 0.046875 0.1875 0.23438 0.98438 0.98438 1.5469 2.5625 1.5469 4.6406 0 1.7188-0.35938 3.4688-1.5938 4.7188-0.14062 0.125-0.14062 0.14062-0.14062 0.17188 0 0.0625 0.046875 0.10938 0.10938 0.10938 0.09375 0 1-0.6875 1.5781-1.9531 0.51562-1.0938 0.625-2.2031 0.625-3.0469z"/>
</symbol>
<symbol id="h" overflow="visible">
<path d="m4.6094-3.375c-0.09375-0.625-0.5-1.1875-1.2812-1.1875-0.60938 0-1.25 0.17188-2.0312 0.9375-0.82812 0.82812-0.89062 1.7656-0.89062 2.0625 0 0.625 0.4375 1.7812 1.8281 1.7812 2.375 0 3.4062-3.3438 3.4062-4.7812 0-1.5781-0.92188-2.5781-2.1562-2.5781-1.4375 0-1.9062 1.2969-1.9062 1.5781 0 0.14062 0.09375 0.34375 0.39062 0.34375 0.32812 0 0.53125-0.29688 0.53125-0.51562 0-0.35938-0.3125-0.35938-0.46875-0.35938 0.4375-0.73438 1.1562-0.79688 1.4375-0.79688 0.73438 0 1.4219 0.51562 1.4219 1.8125 0 0.39062-0.0625 0.89062-0.26562 1.7031zm-2.3438 3.3125c-1.0938 0-1.0938-1.0312-1.0938-1.125 0-0.26562 0.25-1.6562 0.65625-2.2656 0.39062-0.5625 0.89062-0.89062 1.5-0.89062 1.0938 0 1.1094 1.125 1.1094 1.3281 0 0.71875-0.64062 2.9531-2.1719 2.9531z"/>
</symbol>
<symbol id="g" overflow="visible">
<path d="m3.3281-3.0156c0.0625-0.25 0.29688-1.1719 0.98438-1.1719 0.046875 0 0.29688 0 0.5 0.125-0.28125 0.0625-0.46875 0.29688-0.46875 0.54688 0 0.15625 0.10938 0.34375 0.375 0.34375 0.21875 0 0.53125-0.17188 0.53125-0.57812 0-0.51562-0.57812-0.65625-0.92188-0.65625-0.57812 0-0.92188 0.53125-1.0469 0.75-0.25-0.65625-0.78125-0.75-1.0781-0.75-1.0312 0-1.6094 1.2812-1.6094 1.5312 0 0.10938 0.10938 0.10938 0.125 0.10938 0.078125 0 0.10938-0.03125 0.125-0.10938 0.34375-1.0625 1-1.3125 1.3438-1.3125 0.1875 0 0.53125 0.09375 0.53125 0.67188 0 0.3125-0.17188 0.96875-0.53125 2.375-0.15625 0.60938-0.51562 1.0312-0.95312 1.0312-0.0625 0-0.28125 0-0.5-0.125 0.25-0.0625 0.46875-0.26562 0.46875-0.54688 0-0.26562-0.21875-0.34375-0.35938-0.34375-0.3125 0-0.54688 0.25-0.54688 0.57812 0 0.45312 0.48438 0.65625 0.92188 0.65625 0.67188 0 1.0312-0.70312 1.0469-0.75 0.125 0.35938 0.48438 0.75 1.0781 0.75 1.0312 0 1.5938-1.2812 1.5938-1.5312 0-0.10938-0.078125-0.10938-0.10938-0.10938-0.09375 0-0.10938 0.046875-0.14062 0.10938-0.32812 1.0781-1 1.3125-1.3125 1.3125-0.39062 0-0.54688-0.3125-0.54688-0.65625 0-0.21875 0.046875-0.4375 0.15625-0.875z"/>
</symbol>
<symbol id="aq" overflow="visible">
<path d="m2.3281-4.4375c0-0.1875 0-0.1875-0.20312-0.1875-0.45312 0.4375-1.0781 0.4375-1.3594 0.4375v0.25c0.15625 0 0.625 0 1-0.1875v3.5469c0 0.23438 0 0.32812-0.6875 0.32812h-0.26562v0.25c0.125 0 0.98438-0.03125 1.2344-0.03125 0.21875 0 1.0938 0.03125 1.25 0.03125v-0.25h-0.26562c-0.70312 0-0.70312-0.09375-0.70312-0.32812z"/>
</symbol>
<symbol id="ap" overflow="visible">
<path d="m3.5156-1.2656h-0.23438c-0.015625 0.15625-0.09375 0.5625-0.1875 0.625-0.046875 0.046875-0.57812 0.046875-0.6875 0.046875h-1.2812c0.73438-0.64062 0.98438-0.84375 1.3906-1.1719 0.51562-0.40625 1-0.84375 1-1.5 0-0.84375-0.73438-1.3594-1.625-1.3594-0.85938 0-1.4531 0.60938-1.4531 1.25 0 0.34375 0.29688 0.39062 0.375 0.39062 0.15625 0 0.35938-0.125 0.35938-0.375 0-0.125-0.046875-0.375-0.40625-0.375 0.21875-0.48438 0.6875-0.64062 1.0156-0.64062 0.70312 0 1.0625 0.54688 1.0625 1.1094 0 0.60938-0.4375 1.0781-0.65625 1.3281l-1.6719 1.6719c-0.078125 0.0625-0.078125 0.078125-0.078125 0.26562h2.875z"/>
</symbol>
<symbol id="ao" overflow="visible">
<path d="m1.9062-2.3281c0.54688 0 0.9375 0.375 0.9375 1.125 0 0.85938-0.51562 1.125-0.90625 1.125-0.28125 0-0.90625-0.078125-1.1875-0.5 0.32812 0 0.40625-0.23438 0.40625-0.39062 0-0.21875-0.17188-0.375-0.39062-0.375-0.1875 0-0.39062 0.125-0.39062 0.40625 0 0.65625 0.71875 1.0781 1.5625 1.0781 0.96875 0 1.6406-0.65625 1.6406-1.3438 0-0.54688-0.4375-1.0938-1.2031-1.25 0.71875-0.26562 0.98438-0.78125 0.98438-1.2188 0-0.54688-0.625-0.95312-1.4062-0.95312-0.76562 0-1.3594 0.375-1.3594 0.9375 0 0.23438 0.15625 0.35938 0.35938 0.35938 0.21875 0 0.35938-0.15625 0.35938-0.34375 0-0.20312-0.14062-0.35938-0.35938-0.375 0.25-0.29688 0.71875-0.375 0.98438-0.375 0.3125 0 0.75 0.15625 0.75 0.75 0 0.29688-0.09375 0.625-0.28125 0.82812-0.21875 0.26562-0.42188 0.28125-0.76562 0.3125-0.17188 0.015625-0.1875 0.015625-0.21875 0.015625-0.015625 0-0.078125 0.015625-0.078125 0.09375 0 0.09375 0.0625 0.09375 0.1875 0.09375z"/>
</symbol>
<symbol id="an" overflow="visible">
<path d="m3.6875-1.1406v-0.25h-0.78125v-3.1094c0-0.14062 0-0.20312-0.14062-0.20312-0.09375 0-0.125 0-0.1875 0.10938l-2.3125 3.2031v0.25h2.0625v0.5625c0 0.25 0 0.32812-0.57812 0.32812h-0.1875v0.25c0.35938-0.015625 0.79688-0.03125 1.0469-0.03125 0.26562 0 0.70312 0.015625 1.0625 0.03125v-0.25h-0.1875c-0.57812 0-0.57812-0.078125-0.57812-0.32812v-0.5625zm-1.3125-2.7969v2.5469h-1.8438z"/>
</symbol>
<symbol id="f" overflow="visible">
<path d="m4.8438-1.8281c-0.046875 0.23438-0.078125 0.29688-0.26562 0.51562-0.59375 0.75-1.1875 1.0312-1.6406 1.0312-0.46875 0-0.92188-0.375-0.92188-1.375 0-0.75 0.4375-2.3594 0.75-3 0.42188-0.8125 1.0625-1.375 1.6719-1.375 0.9375 0 1.125 1.1719 1.125 1.25l-0.046875 0.20312zm0.89062-3.5469c-0.1875-0.42188-0.57812-0.95312-1.2969-0.95312-1.5625 0-3.3438 1.9688-3.3438 4.1094 0 1.4844 0.90625 2.2188 1.8125 2.2188 0.76562 0 1.4375-0.60938 1.7031-0.89062l-0.32812 1.2969c-0.1875 0.78125-0.28125 1.1406-0.79688 1.6406-0.59375 0.59375-1.125 0.59375-1.4531 0.59375-0.42188 0-0.78125-0.03125-1.1406-0.14062 0.45312-0.14062 0.57812-0.53125 0.57812-0.6875 0-0.23438-0.17188-0.46875-0.5-0.46875-0.34375 0-0.70312 0.29688-0.70312 0.76562 0 0.59375 0.57812 0.8125 1.7969 0.8125 1.8594 0 2.8125-1.1875 3-1.9531l1.5938-6.4375c0.046875-0.17188 0.046875-0.20312 0.046875-0.21875 0-0.20312-0.15625-0.35938-0.375-0.35938-0.34375 0-0.54688 0.28125-0.59375 0.67188z"/>
</symbol>
<symbol id="al" overflow="visible">
<path d="m3.7656 1.6094c-0.375 0.54688-0.9375 1.0312-1.6406 1.0312-0.17188 0-0.85938-0.03125-1.0781-0.6875 0.046875 0.015625 0.10938 0.015625 0.14062 0.015625 0.4375 0 0.71875-0.375 0.71875-0.70312s-0.26562-0.45312-0.48438-0.45312c-0.23438 0-0.73438 0.17188-0.73438 0.875 0 0.73438 0.625 1.2344 1.4375 1.2344 1.4375 0 2.875-1.3125 3.2812-2.9062l1.4062-5.5938c0.015625-0.078125 0.046875-0.15625 0.046875-0.25 0-0.20312-0.17188-0.35938-0.39062-0.35938-0.125 0-0.4375 0.0625-0.54688 0.5l-1.0625 4.2031c-0.0625 0.26562-0.0625 0.29688-0.1875 0.45312-0.28125 0.40625-0.75 0.89062-1.4375 0.89062-0.8125 0-0.875-0.79688-0.875-1.1719 0-0.82812 0.375-1.9219 0.76562-2.9688 0.15625-0.40625 0.25-0.60938 0.25-0.89062 0-0.60938-0.4375-1.1562-1.1406-1.1562-1.3125 0-1.8438 2.0781-1.8438 2.2031 0 0.046875 0.046875 0.125 0.15625 0.125 0.125 0 0.14062-0.0625 0.20312-0.26562 0.34375-1.2031 0.89062-1.7656 1.4375-1.7656 0.14062 0 0.375 0 0.375 0.46875 0 0.375-0.15625 0.78125-0.375 1.3281-0.70312 1.875-0.70312 2.3594-0.70312 2.7031 0 1.3594 0.98438 1.6719 1.7031 1.6719 0.40625 0 0.92188-0.125 1.4375-0.65625l0.015625 0.015625c-0.21875 0.84375-0.35938 1.4062-0.875 2.1094z"/>
</symbol>
<symbol id="ak" overflow="visible">
<path d="m9.6875-4.6406c0.20312 0 0.45312 0 0.45312-0.26562s-0.25-0.26562-0.45312-0.26562h-8.4531c-0.20312 0-0.45312 0-0.45312 0.25 0 0.28125 0.23438 0.28125 0.45312 0.28125zm0 2.6562c0.20312 0 0.45312 0 0.45312-0.25 0-0.28125-0.25-0.28125-0.45312-0.28125h-8.4531c-0.20312 0-0.45312 0-0.45312 0.26562s0.23438 0.26562 0.45312 0.26562z"/>
</symbol>
<symbol id="aj" overflow="visible">
<path d="m6.3906-5.7656c0.29688 0 0.40625 0 0.40625-0.26562 0-0.15625-0.10938-0.15625-0.375-0.15625h-1.1562c0.26562-1.4688 0.46875-2.4844 0.59375-2.9531 0.078125-0.34375 0.375-0.67188 0.75-0.67188 0.29688 0 0.60938 0.125 0.75 0.26562-0.5625 0.046875-0.73438 0.46875-0.73438 0.71875 0 0.28125 0.21875 0.45312 0.48438 0.45312 0.29688 0 0.71875-0.25 0.71875-0.79688 0-0.59375-0.59375-0.92188-1.2344-0.92188-0.60938 0-1.2188 0.45312-1.5 1.0156-0.26562 0.5-0.40625 1.0156-0.73438 2.8906h-0.95312c-0.28125 0-0.42188 0-0.42188 0.26562 0 0.15625 0.078125 0.15625 0.375 0.15625h0.92188c-0.26562 1.3281-0.85938 4.5781-1.1875 6.1094-0.23438 1.25-0.45312 2.2969-1.1719 2.2969-0.046875 0-0.45312 0-0.71875-0.28125 0.73438-0.046875 0.73438-0.6875 0.73438-0.70312 0-0.28125-0.21875-0.45312-0.48438-0.45312-0.29688 0-0.71875 0.25-0.71875 0.79688 0 0.60938 0.625 0.92188 1.1875 0.92188 1.4688 0 2.0625-2.625 2.2188-3.3438 0.26562-1.0938 0.96875-4.9062 1.0312-5.3438z"/>
</symbol>
<symbol id="ai" overflow="visible">
<path d="m4.6562 3.4844c0-0.046875 0-0.078125-0.23438-0.3125-1.4375-1.4531-2.2344-3.8125-2.2344-6.75 0-2.7812 0.67188-5.1719 2.3281-6.8594 0.14062-0.14062 0.14062-0.15625 0.14062-0.20312 0-0.09375-0.0625-0.10938-0.125-0.10938-0.1875 0-1.3594 1.0312-2.0625 2.4375-0.73438 1.4375-1.0625 2.9844-1.0625 4.7344 0 1.2812 0.20312 2.9844 0.95312 4.5312 0.84375 1.7188 2.0156 2.6406 2.1719 2.6406 0.0625 0 0.125-0.015625 0.125-0.10938z"/>
</symbol>
<symbol id="ah" overflow="visible">
<path d="m6.7969-5.8594c-0.45312 0.09375-0.625 0.4375-0.625 0.70312 0 0.34375 0.26562 0.46875 0.46875 0.46875 0.4375 0 0.73438-0.375 0.73438-0.76562 0-0.59375-0.6875-0.875-1.2969-0.875-0.875 0-1.3594 0.85938-1.4844 1.1406-0.32812-1.0781-1.2188-1.1406-1.4844-1.1406-1.4531 0-2.2344 1.875-2.2344 2.2031 0 0.046875 0.0625 0.125 0.15625 0.125 0.10938 0 0.14062-0.09375 0.17188-0.14062 0.48438-1.5938 1.4531-1.8906 1.8594-1.8906 0.65625 0 0.78125 0.59375 0.78125 0.9375 0 0.3125-0.078125 0.64062-0.26562 1.3281l-0.48438 1.9688c-0.20312 0.85938-0.625 1.6562-1.3906 1.6562-0.0625 0-0.42188 0-0.73438-0.1875 0.51562-0.10938 0.64062-0.53125 0.64062-0.70312 0-0.28125-0.21875-0.45312-0.48438-0.45312-0.34375 0-0.71875 0.29688-0.71875 0.75 0 0.60938 0.67188 0.875 1.2812 0.875 0.6875 0 1.1875-0.54688 1.4844-1.125 0.23438 0.84375 0.9375 1.125 1.4688 1.125 1.4688 0 2.25-1.875 2.25-2.1875 0-0.078125-0.0625-0.14062-0.15625-0.14062-0.125 0-0.14062 0.078125-0.17188 0.1875-0.39062 1.2656-1.2344 1.8594-1.875 1.8594-0.5 0-0.76562-0.375-0.76562-0.96875 0-0.3125 0.046875-0.54688 0.28125-1.4844l0.5-1.9531c0.21875-0.85938 0.70312-1.4844 1.3594-1.4844 0.03125 0 0.4375 0 0.73438 0.17188z"/>
</symbol>
<symbol id="ag" overflow="visible">
<path d="m2.9375-6.375c0-0.25 0-0.26562-0.23438-0.26562-0.625 0.64062-1.5 0.64062-1.8125 0.64062v0.3125c0.20312 0 0.78125 0 1.2969-0.26562v5.1719c0 0.35938-0.03125 0.46875-0.92188 0.46875h-0.3125v0.3125c0.34375-0.03125 1.2031-0.03125 1.6094-0.03125 0.39062 0 1.2656 0 1.6094 0.03125v-0.3125h-0.3125c-0.90625 0-0.92188-0.10938-0.92188-0.46875z"/>
</symbol>
<symbol id="af" overflow="visible">
<path d="m2.7969 0.0625c0-0.84375-0.26562-1.4531-0.85938-1.4531-0.45312 0-0.6875 0.375-0.6875 0.6875s0.21875 0.70312 0.70312 0.70312c0.1875 0 0.34375-0.0625 0.46875-0.1875 0.03125-0.03125 0.046875-0.03125 0.0625-0.03125 0.03125 0 0.03125 0.20312 0.03125 0.28125 0 0.46875-0.09375 1.4062-0.92188 2.3281-0.15625 0.17188-0.15625 0.20312-0.15625 0.23438 0 0.078125 0.0625 0.14062 0.14062 0.14062 0.10938 0 1.2188-1.0625 1.2188-2.7031z"/>
</symbol>
<symbol id="ae" overflow="visible">
<path d="m6.7969-5.8594c-0.45312 0.09375-0.625 0.4375-0.625 0.70312 0 0.34375 0.26562 0.46875 0.46875 0.46875 0.4375 0 0.73438-0.375 0.73438-0.76562 0-0.59375-0.6875-0.875-1.2969-0.875-0.875 0-1.3594 0.85938-1.4844 1.1406-0.32812-1.0781-1.2188-1.1406-1.4844-1.1406-1.4531 0-2.2344 1.875-2.2344 2.2031 0 0.046875 0.0625 0.125 0.15625 0.125 0.10938 0 0.14062-0.09375 0.17188-0.14062 0.48438-1.5938 1.4531-1.8906 1.8594-1.8906 0.65625 0 0.78125 0.59375 0.78125 0.9375 0 0.3125-0.078125 0.64062-0.26562 1.3281l-0.48438 1.9688c-0.20312 0.85938-0.625 1.6562-1.3906 1.6562-0.0625 0-0.42188 0-0.73438-0.1875 0.51562-0.10938 0.64062-0.53125 0.64062-0.70312 0-0.28125-0.21875-0.45312-0.48438-0.45312-0.34375 0-0.71875 0.29688-0.71875 0.75 0 0.60938 0.67188 0.875 1.2812 0.875 0.6875 0 1.1875-0.54688 1.4844-1.125 0.23438 0.84375 0.9375 1.125 1.4688 1.125 1.4688 0 2.25-1.875 2.25-2.1875 0-0.078125-0.0625-0.14062-0.15625-0.14062-0.125 0-0.14062 0.078125-0.17188 0.1875-0.39062 1.2656-1.2344 1.8594-1.875 1.8594-0.5 0-0.76562-0.375-0.76562-0.96875 0-0.3125 0.046875-0.54688 0.28125-1.4844l0.5-1.9531c0.21875-0.85938 0.70312-1.4844 1.3594-1.4844 0.03125 0 0.4375 0 0.73438 0.17188z"/>
</symbol>
<symbol id="ad" overflow="visible">
<path d="m1.2656-0.76562 1.0625-1.0312c1.5469-1.375 2.1406-1.9062 2.1406-2.9062 0-1.1406-0.89062-1.9375-2.1094-1.9375-1.125 0-1.8594 0.92188-1.8594 1.8125 0 0.54688 0.5 0.54688 0.53125 0.54688 0.17188 0 0.51562-0.10938 0.51562-0.53125 0-0.25-0.1875-0.51562-0.53125-0.51562-0.078125 0-0.09375 0-0.125 0.015625 0.21875-0.65625 0.76562-1.0156 1.3438-1.0156 0.90625 0 1.3281 0.8125 1.3281 1.625 0 0.79688-0.48438 1.5781-1.0469 2.2031l-1.9062 2.125c-0.10938 0.10938-0.10938 0.14062-0.10938 0.375h3.7031l0.26562-1.7344h-0.23438c-0.0625 0.29688-0.125 0.73438-0.23438 0.89062-0.0625 0.078125-0.71875 0.078125-0.9375 0.078125z"/>
</symbol>
<symbol id="aa" overflow="visible">
<path d="m2.7969 0.0625c0-0.84375-0.26562-1.4531-0.85938-1.4531-0.45312 0-0.6875 0.375-0.6875 0.6875s0.21875 0.70312 0.70312 0.70312c0.1875 0 0.34375-0.0625 0.46875-0.1875 0.03125-0.03125 0.046875-0.03125 0.0625-0.03125 0.03125 0 0.03125 0.20312 0.03125 0.28125 0 0.46875-0.09375 1.4062-0.92188 2.3281-0.15625 0.17188-0.15625 0.20312-0.15625 0.23438 0 0.078125 0.0625 0.14062 0.14062 0.14062 0.10938 0 1.2188-1.0625 1.2188-2.7031z"/>
</symbol>
<symbol id="z" overflow="visible">
<path d="m6.7969-5.8594c-0.45312 0.09375-0.625 0.4375-0.625 0.70312 0 0.34375 0.26562 0.46875 0.46875 0.46875 0.4375 0 0.73438-0.375 0.73438-0.76562 0-0.59375-0.6875-0.875-1.2969-0.875-0.875 0-1.3594 0.85938-1.4844 1.1406-0.32812-1.0781-1.2188-1.1406-1.4844-1.1406-1.4531 0-2.2344 1.875-2.2344 2.2031 0 0.046875 0.0625 0.125 0.15625 0.125 0.10938 0 0.14062-0.09375 0.17188-0.14062 0.48438-1.5938 1.4531-1.8906 1.8594-1.8906 0.65625 0 0.78125 0.59375 0.78125 0.9375 0 0.3125-0.078125 0.64062-0.26562 1.3281l-0.48438 1.9688c-0.20312 0.85938-0.625 1.6562-1.3906 1.6562-0.0625 0-0.42188 0-0.73438-0.1875 0.51562-0.10938 0.64062-0.53125 0.64062-0.70312 0-0.28125-0.21875-0.45312-0.48438-0.45312-0.34375 0-0.71875 0.29688-0.71875 0.75 0 0.60938 0.67188 0.875 1.2812 0.875 0.6875 0 1.1875-0.54688 1.4844-1.125 0.23438 0.84375 0.9375 1.125 1.4688 1.125 1.4688 0 2.25-1.875 2.25-2.1875 0-0.078125-0.0625-0.14062-0.15625-0.14062-0.125 0-0.14062 0.078125-0.17188 0.1875-0.39062 1.2656-1.2344 1.8594-1.875 1.8594-0.5 0-0.76562-0.375-0.76562-0.96875 0-0.3125 0.046875-0.54688 0.28125-1.4844l0.5-1.9531c0.21875-0.85938 0.70312-1.4844 1.3594-1.4844 0.03125 0 0.4375 0 0.73438 0.17188z"/>
</symbol>
<symbol id="y" overflow="visible">
<path d="m2.8906-3.5156c0.8125-0.26562 1.3906-0.95312 1.3906-1.75 0-0.8125-0.875-1.375-1.8281-1.375-1 0-1.7656 0.59375-1.7656 1.3594 0 0.32812 0.21875 0.51562 0.51562 0.51562s0.5-0.21875 0.5-0.51562c0-0.48438-0.46875-0.48438-0.60938-0.48438 0.29688-0.5 0.95312-0.625 1.3125-0.625 0.42188 0 0.96875 0.21875 0.96875 1.1094 0 0.125-0.03125 0.70312-0.28125 1.1406-0.29688 0.48438-0.64062 0.51562-0.89062 0.51562-0.078125 0.015625-0.3125 0.03125-0.39062 0.03125-0.078125 0.015625-0.14062 0.03125-0.14062 0.125 0 0.10938 0.0625 0.10938 0.23438 0.10938h0.4375c0.8125 0 1.1875 0.67188 1.1875 1.6562 0 1.3594-0.6875 1.6406-1.125 1.6406s-1.1875-0.17188-1.5312-0.75c0.34375 0.046875 0.65625-0.17188 0.65625-0.54688 0-0.35938-0.26562-0.5625-0.54688-0.5625-0.25 0-0.5625 0.14062-0.5625 0.57812 0 0.90625 0.92188 1.5625 2.0156 1.5625 1.2188 0 2.125-0.90625 2.125-1.9219 0-0.8125-0.64062-1.5938-1.6719-1.8125z"/>
</symbol>
<symbol id="x" overflow="visible">
<path d="m2.7969 0.0625c0-0.84375-0.26562-1.4531-0.85938-1.4531-0.45312 0-0.6875 0.375-0.6875 0.6875s0.21875 0.70312 0.70312 0.70312c0.1875 0 0.34375-0.0625 0.46875-0.1875 0.03125-0.03125 0.046875-0.03125 0.0625-0.03125 0.03125 0 0.03125 0.20312 0.03125 0.28125 0 0.46875-0.09375 1.4062-0.92188 2.3281-0.15625 0.17188-0.15625 0.20312-0.15625 0.23438 0 0.078125 0.0625 0.14062 0.14062 0.14062 0.10938 0 1.2188-1.0625 1.2188-2.7031z"/>
</symbol>
<symbol id="w" overflow="visible">
<path d="m6.7969-5.8594c-0.45312 0.09375-0.625 0.4375-0.625 0.70312 0 0.34375 0.26562 0.46875 0.46875 0.46875 0.4375 0 0.73438-0.375 0.73438-0.76562 0-0.59375-0.6875-0.875-1.2969-0.875-0.875 0-1.3594 0.85938-1.4844 1.1406-0.32812-1.0781-1.2188-1.1406-1.4844-1.1406-1.4531 0-2.2344 1.875-2.2344 2.2031 0 0.046875 0.0625 0.125 0.15625 0.125 0.10938 0 0.14062-0.09375 0.17188-0.14062 0.48438-1.5938 1.4531-1.8906 1.8594-1.8906 0.65625 0 0.78125 0.59375 0.78125 0.9375 0 0.3125-0.078125 0.64062-0.26562 1.3281l-0.48438 1.9688c-0.20312 0.85938-0.625 1.6562-1.3906 1.6562-0.0625 0-0.42188 0-0.73438-0.1875 0.51562-0.10938 0.64062-0.53125 0.64062-0.70312 0-0.28125-0.21875-0.45312-0.48438-0.45312-0.34375 0-0.71875 0.29688-0.71875 0.75 0 0.60938 0.67188 0.875 1.2812 0.875 0.6875 0 1.1875-0.54688 1.4844-1.125 0.23438 0.84375 0.9375 1.125 1.4688 1.125 1.4688 0 2.25-1.875 2.25-2.1875 0-0.078125-0.0625-0.14062-0.15625-0.14062-0.125 0-0.14062 0.078125-0.17188 0.1875-0.39062 1.2656-1.2344 1.8594-1.875 1.8594-0.5 0-0.76562-0.375-0.76562-0.96875 0-0.3125 0.046875-0.54688 0.28125-1.4844l0.5-1.9531c0.21875-0.85938 0.70312-1.4844 1.3594-1.4844 0.03125 0 0.4375 0 0.73438 0.17188z"/>
</symbol>
<symbol id="v" overflow="visible">
<path d="m2.9375-1.6406v0.85938c0 0.35938-0.03125 0.46875-0.76562 0.46875h-0.20312v0.3125c0.40625-0.03125 0.92188-0.03125 1.3438-0.03125s0.9375 0 1.3594 0.03125v-0.3125h-0.21875c-0.73438 0-0.75-0.10938-0.75-0.46875v-0.85938h0.98438v-0.3125h-0.98438v-4.5312c0-0.20312 0-0.26562-0.17188-0.26562-0.078125 0-0.10938 0-0.1875 0.125l-3.0625 4.6719v0.3125zm0.046875-0.3125h-2.4219l2.4219-3.7188z"/>
</symbol>
<symbol id="u" overflow="visible">
<path d="m4.0469-3.5781c0-1.0781-0.14062-2.8594-0.95312-4.5312-0.84375-1.7188-2.0156-2.6406-2.1719-2.6406-0.0625 0-0.14062 0.015625-0.14062 0.10938 0 0.046875 0 0.0625 0.25 0.3125 1.4375 1.4531 2.2344 3.8125 2.2344 6.75 0 2.7812-0.67188 5.1719-2.3281 6.8594-0.15625 0.125-0.15625 0.15625-0.15625 0.20312 0 0.09375 0.078125 0.10938 0.14062 0.10938 0.1875 0 1.3594-1.0312 2.0625-2.4375 0.73438-1.4531 1.0625-3 1.0625-4.7344z"/>
</symbol>
</defs>
<g fill="#9f1fef">
<use x="125.419192" y="86.854024" xlink:href="#as"/>
</g>
<path transform="matrix(1,0,0,-1,-127,716)" d="m272 632c0 8.8359-7.1641 16-16 16s-16-7.1641-16-16 7.1641-16 16-16 16 7.1641 16 16z" fill="none" stroke="#9f1fef" stroke-linejoin="round" stroke-miterlimit="10" stroke-width=".8"/>
<path transform="matrix(1,0,0,-1,-127,716)" d="m272 632h128" fill="none" stroke="#a42a2a" stroke-linejoin="round" stroke-miterlimit="10" stroke-width=".8"/>
<path transform="matrix(1,0,0,-1,-127,716)" d="m272 632 7-2.332v4.6641z" fill="#a42a2a" fill-rule="evenodd" stroke="#a42a2a" stroke-linejoin="round" stroke-miterlimit="10" stroke-width=".8"/>
<g fill="#a42a2a">
<use x="187.143192" y="75.279024" xlink:href="#ar"/>
<use x="198.369192" y="75.279024" xlink:href="#am"/>
<use x="214.475192" y="69.630024" xlink:href="#ac"/>
<use x="220.313276" y="69.630024" xlink:href="#ab"/>
</g>
<path transform="matrix(1 0 0 -1 214.48 71.692)" d="m0.0013705 6.1775e-4h12.621" fill="none" stroke="#a42a2a" stroke-miterlimit="10" stroke-width=".398"/>
<g fill="#a42a2a">
<use x="215.244192" y="80.226024" xlink:href="#t"/>
<use x="221.082276" y="80.226024" xlink:href="#s"/>
</g>
<path transform="matrix(1,0,0,-1,-127,716)" d="m128 692h80l32-60" fill="none" stroke="#000" stroke-linejoin="round" stroke-miterlimit="10" stroke-width=".8"/>
<path transform="matrix(1,0,0,-1,-127,716)" d="m128 692 7-2.332v4.6641z" fill-rule="evenodd" stroke="#000" stroke-linejoin="round" stroke-miterlimit="10" stroke-width=".8"/>
<g>
<use x="4.334192" y="8.597024" xlink:href="#e"/>
</g>
<g fill="#9f1fef">
<use x="10.172276" y="8.597024" xlink:href="#d"/>
<use x="16.126192" y="8.597024" xlink:href="#c"/>
<use x="20.001192" y="8.597024" xlink:href="#b"/>
<use x="25.694192" y="10.091024" xlink:href="#a"/>
<use x="30.164192" y="8.597024" xlink:href="#r"/>
<use x="32.923832" y="8.597024" xlink:href="#q"/>
<use x="38.625192" y="10.091024" xlink:href="#p"/>
<use x="43.094192" y="8.597024" xlink:href="#o"/>
<use x="45.853832" y="8.597024" xlink:href="#n"/>
<use x="51.556192" y="10.091024" xlink:href="#m"/>
<use x="56.025192" y="8.597024" xlink:href="#l"/>
<use x="58.784832" y="8.597024" xlink:href="#k"/>
<use x="64.487192" y="10.091024" xlink:href="#j"/>
<use x="68.956192" y="8.597024" xlink:href="#i"/>
</g>
<path transform="matrix(1 0 0 -1 4.3342 11.685)" d="m0.0017455 0.0014302h68.496" fill="none" stroke="#000" stroke-miterlimit="10" stroke-width=".398"/>
<g>
<use x="30.579192" y="20.219024" xlink:href="#h"/>
</g>
<g fill="#00008a">
<use x="36.417276" y="20.219024" xlink:href="#g"/>
<use x="42.115192" y="21.713024" xlink:href="#aq"/>
</g>
<g fill="#a42a2a">
<use x="74.026192" y="15.271024" xlink:href="#f"/>
</g>
<path transform="matrix(1,0,0,-1,-127,716)" d="m128 652h80l32-20" fill="none" stroke="#000" stroke-linejoin="round" stroke-miterlimit="10" stroke-width=".8"/>
<path transform="matrix(1,0,0,-1,-127,716)" d="m128 652 7-2.332v4.6641z" fill-rule="evenodd" stroke="#000" stroke-linejoin="round" stroke-miterlimit="10" stroke-width=".8"/>
<path transform="matrix(1,0,0,-1,-127,716)" d="m128 612h80l32 20" fill="none" stroke="#000" stroke-linejoin="round" stroke-miterlimit="10" stroke-width=".8"/>
<path transform="matrix(1,0,0,-1,-127,716)" d="m128 612 7-2.332v4.6641z" fill-rule="evenodd" stroke="#000" stroke-linejoin="round" stroke-miterlimit="10" stroke-width=".8"/>
<path transform="matrix(1,0,0,-1,-127,716)" d="m128 572h80l32 60" fill="none" stroke="#000" stroke-linejoin="round" stroke-miterlimit="10" stroke-width=".8"/>
<path transform="matrix(1,0,0,-1,-127,716)" d="m128 572 7-2.332v4.6641z" fill-rule="evenodd" stroke="#000" stroke-linejoin="round" stroke-miterlimit="10" stroke-width=".8"/>
<g>
<use x="4.334192" y="48.597024" xlink:href="#e"/>
</g>
<g fill="#9f1fef">
<use x="10.172276" y="48.597024" xlink:href="#d"/>
<use x="16.126192" y="48.597024" xlink:href="#c"/>
<use x="20.001192" y="48.597024" xlink:href="#b"/>
<use x="25.694192" y="50.091024" xlink:href="#a"/>
<use x="30.164192" y="48.597024" xlink:href="#r"/>
<use x="32.923832" y="48.597024" xlink:href="#q"/>
<use x="38.625192" y="50.091024" xlink:href="#p"/>
<use x="43.094192" y="48.597024" xlink:href="#o"/>
<use x="45.853832" y="48.597024" xlink:href="#n"/>
<use x="51.556192" y="50.091024" xlink:href="#m"/>
<use x="56.025192" y="48.597024" xlink:href="#l"/>
<use x="58.784832" y="48.597024" xlink:href="#k"/>
<use x="64.487192" y="50.091024" xlink:href="#j"/>
<use x="68.956192" y="48.597024" xlink:href="#i"/>
</g>
<path transform="matrix(1 0 0 -1 4.3342 51.685)" d="m0.0017455 0.0014302h68.496" fill="none" stroke="#000" stroke-miterlimit="10" stroke-width=".398"/>
<g>
<use x="30.579192" y="60.219024" xlink:href="#h"/>
</g>
<g fill="#008a8a">
<use x="36.417276" y="60.219024" xlink:href="#g"/>
<use x="42.115192" y="61.713024" xlink:href="#ap"/>
</g>
<g fill="#a42a2a">
<use x="74.026192" y="55.271024" xlink:href="#f"/>
</g>
<g>
<use x="4.334192" y="88.597024" xlink:href="#e"/>
</g>
<g fill="#9f1fef">
<use x="10.172276" y="88.597024" xlink:href="#d"/>
<use x="16.126192" y="88.597024" xlink:href="#c"/>
<use x="20.001192" y="88.597024" xlink:href="#b"/>
<use x="25.694192" y="90.091024" xlink:href="#a"/>
<use x="30.164192" y="88.597024" xlink:href="#r"/>
<use x="32.923832" y="88.597024" xlink:href="#q"/>
<use x="38.625192" y="90.091024" xlink:href="#p"/>
<use x="43.094192" y="88.597024" xlink:href="#o"/>
<use x="45.853832" y="88.597024" xlink:href="#n"/>
<use x="51.556192" y="90.091024" xlink:href="#m"/>
<use x="56.025192" y="88.597024" xlink:href="#l"/>
<use x="58.784832" y="88.597024" xlink:href="#k"/>
<use x="64.487192" y="90.091024" xlink:href="#j"/>
<use x="68.956192" y="88.597024" xlink:href="#i"/>
</g>
<path transform="matrix(1 0 0 -1 4.3342 91.685)" d="m0.0017455 0.0014302h68.496" fill="none" stroke="#000" stroke-miterlimit="10" stroke-width=".398"/>
<g>
<use x="30.579192" y="100.219024" xlink:href="#h"/>
</g>
<g fill="#006300">
<use x="36.417276" y="100.219024" xlink:href="#g"/>
<use x="42.115192" y="101.713024" xlink:href="#ao"/>
</g>
<g fill="#a42a2a">
<use x="74.026192" y="95.271024" xlink:href="#f"/>
</g>
<g>
<use x="4.334192" y="128.597024" xlink:href="#e"/>
</g>
<g fill="#9f1fef">
<use x="10.172276" y="128.597024" xlink:href="#d"/>
<use x="16.126192" y="128.597024" xlink:href="#c"/>
<use x="20.001192" y="128.597024" xlink:href="#b"/>
<use x="25.694192" y="130.091024" xlink:href="#a"/>
<use x="30.164192" y="128.597024" xlink:href="#r"/>
<use x="32.923832" y="128.597024" xlink:href="#q"/>
<use x="38.625192" y="130.091024" xlink:href="#p"/>
<use x="43.094192" y="128.597024" xlink:href="#o"/>
<use x="45.853832" y="128.597024" xlink:href="#n"/>
<use x="51.556192" y="130.091024" xlink:href="#m"/>
<use x="56.025192" y="128.597024" xlink:href="#l"/>
<use x="58.784832" y="128.597024" xlink:href="#k"/>
<use x="64.487192" y="130.091024" xlink:href="#j"/>
<use x="68.956192" y="128.597024" xlink:href="#i"/>
</g>
<path transform="matrix(1 0 0 -1 4.3342 131.69)" d="m0.0017455 0.0014302h68.496" fill="none" stroke="#000" stroke-miterlimit="10" stroke-width=".398"/>
<g>
<use x="30.579192" y="140.219024" xlink:href="#h"/>
</g>
<g fill="#0f0">
<use x="36.417276" y="140.219024" xlink:href="#g"/>
<use x="42.115192" y="141.713024" xlink:href="#an"/>
</g>
<g fill="#a42a2a">
<use x="74.026192" y="135.271024" xlink:href="#f"/>
</g>
<g>
<use x="151.143192" y="99.276024" xlink:href="#al"/>
<use x="162.492192" y="99.276024" xlink:href="#ak"/>
<use x="177.403192" y="99.276024" xlink:href="#aj"/>
<use x="185.858192" y="99.276024" xlink:href="#ai"/>
</g>
<g fill="#00008a">
<use x="191.321192" y="99.276024" xlink:href="#ah"/>
<use x="199.304192" y="101.428024" xlink:href="#ag"/>
</g>
<g>
<use x="204.783192" y="99.276024" xlink:href="#af"/>
</g>
<g fill="#008a8a">
<use x="211.081174" y="99.276024" xlink:href="#ae"/>
<use x="219.058192" y="101.428024" xlink:href="#ad"/>
</g>
<g>
<use x="224.538192" y="99.276024" xlink:href="#aa"/>
</g>
<g fill="#006300">
<use x="230.836174" y="99.276024" xlink:href="#z"/>
<use x="238.813192" y="101.428024" xlink:href="#y"/>
</g>
<g>
<use x="244.293192" y="99.276024" xlink:href="#x"/>
</g>
<g fill="#0f0">
<use x="250.591174" y="99.276024" xlink:href="#w"/>
<use x="258.568192" y="101.428024" xlink:href="#v"/>
</g>
<g>
<use x="264.048192" y="99.276024" xlink:href="#u"/>
</g>
</svg>
